<?xml version="1.0" encoding="UTF-8"?>
<svg id="Capa_2" data-name="Capa 2" xmlns="http://www.w3.org/2000/svg" viewBox="0 0 341.22 375.06">
  <defs>
    <style>
      .cls-1 {
        fill: #8b6a47;
      }
    </style>
  </defs>
  <g id="Capa_1-2" data-name="Capa 1">
    <g>
      <path class="cls-1" d="M243.79,79.94l-9.24,13.2c-.48,.68-.39,1.43,.26,2.26,.33,.4,.5,.72,.5,.95s-.18,.6-.55,1.12c-.57,.81-.96,1.25-1.19,1.31-.22,.06-.57-.07-1.04-.4l-9.74-6.82c-.54-.38-.81-.74-.82-1.08,0-.34,.23-.86,.72-1.55,.32-.46,.57-.73,.73-.8,.16-.07,.5-.06,1,.04,.69,.14,1.15,.17,1.4,.09,.24-.08,.48-.28,.72-.62l18.39-26.27c.26-.38,.39-.72,.39-1.03,0-.31-.18-.74-.53-1.31-.24-.41-.17-.89,.21-1.44,.04-.06,.27-.37,.69-.94,.51-.55,1.07-.61,1.66-.2l13.3,9.31c.4,.28,.63,.54,.69,.78,.06,.24-.04,.64-.31,1.21-.05,.1-.11,.23-.19,.41l-2.42,5.5c-.16,.34-.31,.63-.46,.84-.33,.46-.83,.46-1.51-.02-.91-.64-1.36-1.21-1.34-1.72,.02-.51,.26-1.62,.75-3.33,.29-1.05,.39-1.82,.3-2.31-.09-.49-.44-.96-1.05-1.38-.17-.12-.5-.32-.98-.59l-8.69,12.42,1.09,.76c.57,.4,1.06,.54,1.46,.43,.41-.11,.89-.46,1.45-1.04,.65-.65,1.1-1.04,1.36-1.17,.26-.13,.8,.09,1.63,.67,.57,.4,.87,.7,.91,.9,.04,.2-.06,.47-.29,.8l-5.51,7.87c-.23,.33-.44,.51-.63,.53-.19,.02-.58-.18-1.19-.61-.74-.52-1.12-.97-1.14-1.35-.02-.38,.26-1.08,.83-2.11,.57-1.05,.39-1.9-.54-2.55l-1.09-.76Z"/>
      <path class="cls-1" d="M270.69,74.07l7.77,8.16c.26,.28,.37,.51,.32,.7s-.39,.59-1.02,1.18c-.63,.6-1.22,.81-1.77,.64-.42-.13-.75-.16-1.01-.1s-.62,.32-1.1,.77l-21.54,20.53c-.59,.56-.91,1.18-.97,1.85s.16,1.26,.64,1.77c.44,.46,1.02,.66,1.75,.6,.72-.06,1.33-.33,1.83-.81l21.52-20.51c.37-.35,.6-.64,.68-.85,.08-.21,.1-.56,.05-1.04-.07-.75,.24-1.45,.94-2.12,.54-.52,.92-.77,1.15-.75,.22,.01,.44,.14,.66,.36l3.88,4.07c.43,.45,.42,.9-.05,1.34l-.92,.88c-.41,.39-.69,.61-.85,.67-.16,.05-.39,0-.71-.15-.77-.4-1.47-.29-2.09,.31l-20.96,19.98c-1.99,1.89-4.09,2.83-6.31,2.82-2.23-.01-4.29-1.02-6.19-3.01-2.13-2.23-3.14-4.53-3.03-6.87s1.33-4.62,3.64-6.83l20.25-19.3c.54-.51,.67-1.17,.4-1.96-.14-.4-.18-.68-.12-.84,.05-.16,.26-.41,.62-.75,.74-.71,1.25-1.11,1.53-1.21s.61,.06,1.01,.48Z"/>
      <path class="cls-1" d="M278.49,111.88l-15.95,9.85c-.66,.41-.93,1.08-.81,2.03,.1,.8-.12,1.36-.65,1.68-1.1,.68-1.73,1.03-1.88,1.05-.15,.02-.35-.16-.58-.54l-3.62-5.87c-.18-.29-.18-.55,0-.77,.19-.22,.74-.61,1.66-1.18,.42-.26,.84-.25,1.25,.05,.81,.54,1.44,.68,1.88,.41l26.7-16.48c.65-.4,1.1-.76,1.35-1.07,.25-.32,.36-.74,.32-1.28-.04-.48,0-.84,.13-1.1,.13-.25,.5-.56,1.08-.92,1.05-.65,1.75-.7,2.08-.16l3.78,6.12-13.03,18.34,13-8.02c.72-.45,1.01-1.13,.87-2.04-.07-.55-.02-.96,.15-1.24,.17-.28,.62-.64,1.34-1.09,.45-.28,.75-.4,.91-.38,.15,.03,.31,.17,.46,.42l3.77,6.11c.16,.37-.23,.84-1.18,1.43-.56,.34-.93,.53-1.12,.56s-.41-.05-.66-.22c-.53-.39-.93-.59-1.21-.6-.28-.01-.59,.09-.94,.3l-32.1,19.82-2.32-3.76,15.31-21.44Z"/>
      <path class="cls-1" d="M273.13,139l30.49-10.19c.32-.16,.47-.54,.46-1.14,0-.47,.09-.83,.3-1.06,.21-.23,.74-.5,1.6-.78,.62-.21,1.07-.24,1.34-.09,.27,.15,.56,.66,.85,1.55l3.95,11.82c1.13,3.37,.47,6.69-1.96,9.97-2.43,3.27-7.33,6.14-14.7,8.6-6.71,2.24-12.09,2.85-16.14,1.83-4.05-1.03-6.66-3.3-7.83-6.82l-4.35-13.03c-.12-.36-.12-.64,.01-.84s.5-.4,1.1-.6c.72-.24,1.18-.37,1.38-.38,.2-.01,.49,.16,.87,.5,.79,.76,1.67,.98,2.63,.66Zm35.12-1.53l-34.87,11.65,.44,1.31c.31,.92,.92,1.47,1.85,1.63,.92,.17,2.38-.08,4.38-.75l25.73-8.6c1.12-.38,1.95-.94,2.48-1.71s.63-1.63,.31-2.6l-.31-.94Z"/>
      <path class="cls-1" d="M285.7,176.99l-.58-6.46-2.46-.08c-.05,0-.13,0-.24-.03-.52-.1-.99-.13-1.39-.1-.64,.06-1.14,.51-1.51,1.36-.19,.45-.41,.74-.64,.86-.24,.12-.64,.21-1.2,.26-.72,.06-1.16,.06-1.32,0-.16-.06-.25-.24-.27-.54l-.61-6.82c-.03-.38,.35-.6,1.17-.68,.97-.09,1.78,.14,2.43,.7,.6,.52,1.21,.8,1.83,.83l31.55,2.01c.48,.04,.9,.05,1.25,.02,.55-.05,1-.47,1.35-1.25,.18-.37,.63-.58,1.35-.65,.97-.09,1.57-.09,1.81,0,.24,.08,.38,.35,.42,.8l.89,9.9c.05,.6-.2,1.05-.76,1.35s-1.81,.65-3.74,1.07c-.75,.17-1.49,.34-2.22,.51l-28.68,6.86c-1.39,.33-2.42,.94-3.09,1.82-.17,.24-.31,.4-.42,.48-.11,.08-.45,.15-1.04,.2-.9,.08-1.46,.07-1.67-.03-.21-.1-.34-.35-.37-.75l-1.03-11.51c-.03-.35,.29-.55,.96-.61,.85-.08,1.38-.08,1.6-.01s.49,.29,.81,.68c.44,.57,.96,.82,1.56,.77,.62-.06,2.03-.37,4.26-.95Zm23.43-5.23l-20.93-1.08,.52,5.76,20.41-4.69Z"/>
      <path class="cls-1" d="M316.63,197.15l.11-1.18c.04-.38-.19-.72-.69-1.01-.5-.29-1.88-.68-4.14-1.16-.99-.22-1.6-.47-1.84-.75-.23-.28-.31-.81-.24-1.59,.07-.74,.21-1.21,.41-1.41,.21-.2,.58-.27,1.13-.22,.32,.03,.63,.07,.95,.12l6.13,.9c.72,.1,1.18,.27,1.38,.49,.2,.23,.26,.76,.18,1.59l-1.79,19.01c-.05,.55-.15,.88-.31,.99-.15,.11-.67,.15-1.56,.14l-5.49-.07c-.43,0-.86-.03-1.3-.07-.53-.05-.93-.15-1.2-.31-.27-.16-.37-.58-.31-1.27,.08-.88,.22-1.44,.42-1.67,.2-.23,.77-.38,1.72-.45,1.56-.13,2.84-.32,3.85-.55,1.01-.24,1.54-.6,1.58-1.08l.07-.78-33.93-3.2c-.97-.09-1.68,.26-2.13,1.05-.19,.33-.4,.54-.63,.63s-.7,.1-1.4,.04c-.9-.08-1.42-.21-1.55-.38-.14-.17-.18-.53-.12-1.08l1.08-11.42c.04-.45,.16-.73,.35-.84,.19-.11,.7-.13,1.52-.05,.99,.09,1.56,.42,1.72,.98,.16,.54,.34,.9,.53,1.06s.53,.26,1.02,.31l34.46,3.25Z"/>
      <path class="cls-1" d="M298.63,239.87c.11-1.65,.38-2.98,.82-3.98,.21-.49,.59-.62,1.15-.38l.98,.42c.37,.16,.62,.35,.75,.58,.12,.22,.18,.67,.16,1.34,0,.9,.21,2.23,.63,3.98s1.19,3.61,2.31,5.58c.87,1.52,1.31,2.4,1.35,2.62,.03,.22-.05,.55-.23,.98l-.85,1.98-35.29-15.16c-.36-.15-.79-.02-1.3,.4-.43,.36-.79,.54-1.08,.54-.3,0-.98-.24-2.05-.7-.42-.18-.51-.55-.27-1.11l4.7-10.95c.2-.46,.39-.71,.58-.75s.57,.06,1.14,.31c.81,.35,1.3,.61,1.46,.78,.16,.17,.2,.58,.13,1.23-.11,1.01,.1,1.63,.62,1.85l24.32,10.45Z"/>
      <path class="cls-1" d="M267.82,260.5c-.56-2.29-.31-4.21,.77-5.77,1.32-1.91,3.51-2.85,6.56-2.81,3.05,.03,6.43,1.34,10.15,3.92,2.15,1.49,4.08,3.31,5.79,5.44,1.71,2.13,2.8,4.44,3.28,6.91,.48,2.47-.11,4.91-1.77,7.31-2.11,3.04-5.03,4.56-8.76,4.58-3.74,.01-8.62-2.07-14.66-6.26-6.86-4.76-10.78-9.59-11.75-14.48-.97-4.89,.16-9.66,3.37-14.29,.58-.84,.99-1.31,1.22-1.4s.6,.03,1.1,.39c.8,.55,1.27,.95,1.41,1.18,.14,.23,.14,.47,.02,.72-1.23,2.29-1.98,4.16-2.27,5.6s-.11,2.83,.52,4.19c.63,1.36,1.81,2.63,3.54,3.83,.32,.22,.81,.53,1.48,.93Zm19.17,13.3c1.27,.88,2.25,.8,2.97-.22,.7-1.01,.35-2-1.04-2.97l-15.64-10.85c-.57-.39-1.13-.58-1.69-.57s-.99,.23-1.28,.66c-.35,.5-.38,1.06-.1,1.68,.28,.62,.73,1.14,1.34,1.56l15.44,10.71Z"/>
      <path class="cls-1" d="M251.11,271.14l-9.65,8.76c-.44,.4-.63,.88-.58,1.44,.05,.56,.41,1.38,1.06,2.46,.27,.45,.38,.81,.32,1.09-.05,.28-.35,.66-.89,1.15-.8,.72-1.35,.91-1.68,.55-.11-.12-.21-.27-.32-.47-.26-.41-.89-1.38-1.9-2.9-1.09-1.66-2.01-3.14-2.77-4.42-.76-1.29-1.13-2.03-1.11-2.23,.01-.21,.27-.53,.75-.97l15.2-13.8,4.17,4.6c.58,.64,.78,1.94,.59,3.91-.09,.99,.03,3.62,.34,7.9s.9,7.48,1.76,9.59c.86,2.11,2.49,4.49,4.9,7.13,2.01,2.21,3.51,3.45,4.51,3.71s1.88,.03,2.67-.68c.59-.54,.9-1.13,.92-1.77,.02-.64-.21-1.24-.71-1.79-.29-.31-.66-.67-1.13-1.05-.61-.52-1.17-1.05-1.67-1.6-1.08-1.19-1.65-2.36-1.72-3.5-.06-1.14,.32-2.08,1.14-2.83,.87-.79,1.89-1.07,3.04-.83,1.16,.24,2.19,.86,3.09,1.86,1.88,2.07,2.72,4.52,2.52,7.34-.2,2.82-1.57,5.39-4.12,7.7-2.58,2.34-5.46,3.44-8.63,3.28s-5.96-1.56-8.36-4.2c-1.33-1.47-2.31-3.14-2.94-5.02-.63-1.88-.9-3.8-.83-5.77,.08-1.97,.38-4.63,.92-7.99,.76-4.58,1.12-8.13,1.1-10.64Z"/>
      <path class="cls-1" d="M220.49,301.85l-1.93,1.07c-.49,.27-.85,.36-1.1,.27-.25-.09-.51-.38-.79-.9l-.76-1.37c-.22-.4-.31-.71-.27-.91,.04-.21,.29-.44,.75-.69l2.07-1.15-2.42-4.36c-.58-1.04-1.42-1.55-2.55-1.53-.61,.01-1.08-.29-1.43-.91l-.58-1.04c-.19-.34-.25-.59-.18-.75s.32-.36,.76-.61l9.58-5.31c.46-.25,.78-.33,.98-.22s.55,.62,1.07,1.55c.31,.56,.31,1.09,0,1.61-.39,.66-.41,1.29-.08,1.9l2.9,5.22,9.01-5c.49-.27,.81-.37,.96-.31,.16,.07,.35,.31,.58,.73l1.5,2.69c.15,.28,.25,.51,.3,.7s.04,.95-.02,2.27l-1.2,27.96c-.02,.49-.16,.9-.42,1.21-.25,.31-.81,.71-1.68,1.19-.84,.46-1.34,.68-1.52,.65s-.39-.27-.64-.72l-12.89-23.24Zm14.36,6.91l.67-15.25-6.98,3.88,6.31,11.37Z"/>
      <path class="cls-1" d="M100.39,295.88l7.37-10.91c.35-.51,.55-.88,.6-1.1,.06-.22,0-.52-.17-.91-.21-.51-.12-1.05,.27-1.64,.57-.85,1-1.32,1.29-1.42,.28-.1,.63,0,1.03,.26l9.1,6.15c.52,.35,.52,.9,0,1.67-.5,.73-.84,1.19-1.02,1.38-.19,.18-.43,.24-.74,.16-1.01-.21-1.83,.15-2.46,1.09l-17.41,25.78c-.64,.95-.69,1.77-.14,2.44,.27,.35,.4,.61,.41,.79,0,.17-.18,.55-.56,1.11-.77,1.14-1.45,1.5-2.06,1.09l-11.92-8.05c-2.37-1.6-3.87-3.94-4.51-7.02-.63-3.08,.09-6.15,2.16-9.21,2.94-4.36,7.04-5.73,12.3-4.12-3.38-3.58-3.63-7.5-.76-11.76l3.54-5.24c.3-.44,.35-.88,.17-1.32-.21-.53-.13-1.06,.24-1.6,.57-.85,.97-1.32,1.18-1.42s.53,0,.96,.3l5.78,3.9c.69,.47,.99,1.25,.89,2.35-.09,1.1-.54,2.24-1.33,3.41l-5.99,8.87c-1.17,1.73-.9,3.17,.81,4.33l.97,.66Zm-11.74,17.38l10.01-14.83-1.4-.95c-1.42-.96-3.12,.02-5.09,2.94l-4.78,7.08c-.83,1.23-1.19,2.25-1.08,3.07,.11,.81,.65,1.54,1.61,2.19l.73,.5Z"/>
      <path class="cls-1" d="M60.32,288.6l11.14-10.28-1.2-1.3c-.33-.36-.65-.55-.96-.57-.31-.02-.76,.16-1.37,.55-1.06,.7-1.73,1.08-2,1.16-.27,.07-.5,0-.69-.2-.93-1.01-1.41-1.62-1.45-1.83-.04-.21,.23-.58,.8-1.11l6.5-5.99c.4-.37,.73-.55,.97-.54,.24,.01,.67,.35,1.28,1.01,.4,.43,.59,.8,.56,1.09-.03,.3-.35,.86-.98,1.7-.56,.78-.86,1.3-.89,1.58-.03,.28,.08,.56,.34,.84l1.38,1.49,13.44-12.4-.94-1.01c-.58-.62-1.15-.89-1.73-.8-.57,.09-1.96,.67-4.14,1.72-.92,.44-1.59,.65-2.02,.63-.43-.03-.91-.33-1.44-.9-.73-.79-.83-1.43-.31-1.91,.16-.14,.41-.33,.75-.55l5.08-3.38c.92-.62,1.5-.96,1.74-1.03,.24-.07,.56,.12,.96,.55l11.77,12.75c.29,.32,.41,.59,.34,.82-.07,.23-.46,.67-1.17,1.33-.46,.42-1,.5-1.63,.23-.95-.42-1.68-.4-2.2,.08l-24.33,22.45c-.23,.24-.22,.76,.05,1.54,.18,.54,.23,.92,.14,1.13s-.44,.6-1.03,1.15c-.51,.47-.84,.71-1.01,.72-.17,.01-.42-.16-.76-.53l-11.26-12.2c-.28-.31-.44-.58-.46-.81-.02-.24,.12-.57,.44-1.01l4.13-5.62c.21-.29,.37-.48,.46-.56,.35-.32,.81-.18,1.38,.44,.64,.69,.98,1.23,1.03,1.61,.05,.38-.15,.98-.6,1.8-.81,1.47-1.31,2.56-1.5,3.27-.19,.71-.12,1.24,.2,1.59l1.19,1.29Z"/>
      <path class="cls-1" d="M40.67,265.48c-.13-.04-.62-.08-1.48-.12-.56-.02-.97-.26-1.24-.7-.06-.1-.27-.55-.61-1.34,.06-.24,.31-.55,.74-.92l6.92-5.92c.37-.31,.59-.49,.67-.54,.29-.18,.52-.21,.71-.12,.19,.1,.48,.48,.89,1.15,.46,.75,.67,1.3,.61,1.64-.06,.34-.61,1.26-1.66,2.77-2.22,3.18-3,5.29-2.37,6.32,.46,.74,1.21,.78,2.26,.13,1.31-.81,3.2-3.51,5.66-8.11,2.85-5.29,5.03-8.93,6.53-10.93,1.5-2,3.48-3.75,5.93-5.27,2.91-1.79,5.55-2.5,7.93-2.11,2.38,.39,4.09,1.42,5.13,3.1,.66,1.06,.98,2.28,.97,3.65,0,.53,.06,.91,.2,1.13,.12,.19,.36,.26,.72,.2,.72-.12,1.36,.28,1.92,1.2,.22,.35,.31,.63,.27,.82-.04,.2-.28,.47-.72,.83l-6.84,5.75c-.87,.74-1.34,1.13-1.4,1.17-.44,.27-.9,.01-1.38-.77-.66-1.06-.9-1.78-.73-2.15,.17-.37,.65-1.05,1.46-2.03,2.86-3.56,3.88-5.99,3.07-7.31-.3-.49-.73-.77-1.27-.85s-1.09,.05-1.64,.38c-.95,.59-1.87,1.62-2.75,3.09-.89,1.48-1.83,3.19-2.82,5.15-2.38,4.69-4.42,8.23-6.1,10.6-1.68,2.38-3.72,4.3-6.1,5.77-2.68,1.65-5.17,2.4-7.48,2.23-2.31-.17-3.98-1.08-5-2.75-.71-1.15-1.04-2.87-1-5.16Z"/>
      <path class="cls-1" d="M32.12,244.08l.41,1.11c.13,.36,.49,.57,1.06,.62,.57,.05,1.99-.2,4.24-.74,.99-.23,1.65-.27,1.98-.11,.33,.16,.63,.6,.9,1.33,.26,.7,.33,1.18,.23,1.45s-.41,.5-.92,.68c-.3,.11-.6,.21-.91,.3l-5.92,1.83c-.69,.22-1.18,.27-1.46,.15-.28-.12-.56-.57-.85-1.35l-6.55-17.93c-.19-.52-.24-.86-.15-1.03,.09-.16,.54-.43,1.35-.8l4.98-2.29c.39-.18,.79-.34,1.2-.5,.5-.18,.9-.26,1.21-.24,.31,.02,.59,.36,.82,1.01,.3,.83,.42,1.4,.34,1.69-.08,.3-.53,.68-1.36,1.15-1.35,.79-2.43,1.51-3.24,2.15-.81,.65-1.13,1.2-.96,1.65l.27,.73,32.02-11.7c.91-.33,1.4-.96,1.47-1.87,.03-.38,.13-.66,.3-.84,.17-.18,.59-.39,1.25-.64,.85-.31,1.37-.42,1.56-.32,.2,.09,.39,.4,.58,.93l3.94,10.77c.16,.42,.17,.73,.05,.91-.12,.18-.57,.42-1.35,.7-.93,.34-1.59,.29-1.98-.15-.38-.42-.69-.66-.93-.73-.24-.06-.59,0-1.06,.16l-32.51,11.88Z"/>
      <path class="cls-1" d="M53.19,204.44l.92,6.42,2.46-.05c.05,0,.13,0,.24,.02,.53,.07,.99,.08,1.4,.02,.63-.09,1.11-.57,1.43-1.43,.17-.46,.36-.76,.6-.9s.63-.25,1.19-.33c.72-.1,1.16-.13,1.32-.07,.16,.06,.26,.23,.3,.52l.98,6.78c.05,.38-.32,.62-1.13,.74-.96,.14-1.79-.05-2.47-.56-.62-.49-1.25-.73-1.88-.73l-31.61-.32c-.49-.02-.9,0-1.25,.05-.54,.08-.97,.52-1.29,1.32-.16,.37-.6,.61-1.32,.72-.96,.14-1.57,.17-1.81,.1s-.4-.33-.46-.77l-1.41-9.83c-.09-.6,.14-1.06,.69-1.39,.54-.32,1.77-.75,3.68-1.27,.74-.21,1.47-.42,2.19-.63l28.27-8.38c1.37-.41,2.37-1.07,2.99-1.98,.16-.25,.29-.42,.4-.5,.1-.08,.44-.17,1.02-.25,.89-.13,1.45-.15,1.67-.06,.22,.09,.36,.33,.41,.73l1.65,11.44c.05,.34-.26,.56-.92,.66-.84,.12-1.37,.15-1.59,.1s-.5-.27-.84-.64c-.47-.54-1.01-.77-1.6-.68-.61,.09-2.01,.48-4.2,1.18Zm-23.11,6.47l20.95-.04-.82-5.73-20.13,5.77Z"/>
      <path class="cls-1" d="M18.03,186.09l.8-11.24c.03-.38,.13-.62,.3-.71s.7-.11,1.56-.04c.86,.06,1.42,.35,1.67,.88,.19,.4,.39,.67,.61,.81,.22,.15,.66,.24,1.31,.29l29.68,2.12c.81,.06,1.49-.12,2.02-.53,.54-.41,.83-.97,.88-1.66,.05-.64-.2-1.21-.73-1.7s-1.14-.76-1.83-.81l-29.66-2.12c-.51-.04-.87-.01-1.08,.07-.21,.08-.48,.3-.81,.66-.5,.56-1.24,.8-2.2,.73-.75-.05-1.19-.17-1.33-.34-.14-.17-.2-.42-.18-.73l.4-5.61c.04-.62,.38-.91,1.02-.87l1.27,.09c.56,.04,.92,.1,1.06,.18,.15,.08,.27,.29,.37,.63,.22,.83,.77,1.28,1.63,1.34l28.89,2.06c2.74,.2,4.85,1.12,6.34,2.77,1.49,1.65,2.13,3.86,1.94,6.61-.22,3.08-1.23,5.37-3.05,6.86-1.81,1.5-4.31,2.13-7.51,1.9l-27.91-1.99c-.74-.05-1.32,.29-1.72,1.02-.2,.37-.38,.59-.54,.65-.16,.07-.48,.08-.97,.05-1.02-.07-1.66-.18-1.92-.32-.26-.14-.36-.5-.32-1.07Z"/>
      <path class="cls-1" d="M47.74,150.04l12.57,3.92c.59,.18,1,.27,1.23,.26,.23,0,.5-.15,.83-.42,.42-.35,.97-.42,1.65-.21,.98,.31,1.56,.58,1.73,.83,.17,.24,.19,.6,.04,1.06l-3.27,10.49c-.19,.59-.72,.76-1.6,.48-.84-.26-1.38-.46-1.61-.58-.23-.13-.35-.35-.36-.66-.09-1.03-.67-1.71-1.76-2.05l-29.7-9.25c-1.1-.34-1.89-.15-2.38,.57-.26,.36-.47,.56-.63,.62s-.58-.02-1.23-.22c-1.31-.41-1.85-.96-1.64-1.65l4.28-13.74c.85-2.73,2.66-4.84,5.42-6.34,2.76-1.49,5.91-1.69,9.44-.59,5.02,1.56,7.51,5.09,7.49,10.59,2.46-4.27,6.14-5.64,11.04-4.11l6.03,1.88c.51,.16,.95,.09,1.32-.22,.44-.35,.98-.43,1.6-.24,.98,.31,1.54,.54,1.69,.72s.15,.51,0,1.01l-2.07,6.66c-.25,.79-.91,1.31-1.99,1.53-1.08,.23-2.3,.13-3.65-.29l-10.21-3.18c-1.99-.62-3.3,.05-3.91,2.02l-.35,1.12Zm-20.02-6.24l17.08,5.32,.5-1.61c.51-1.64-.92-2.98-4.28-4.03l-8.16-2.54c-1.42-.44-2.5-.49-3.25-.15-.75,.34-1.29,1.06-1.64,2.17l-.26,.84Z"/>
      <path class="cls-1" d="M69.61,124.57l-3.36,5.55,1.93,1.52s.1,.08,.18,.17c.36,.39,.72,.69,1.07,.9,.55,.33,1.22,.26,2.02-.2,.42-.25,.76-.35,1.03-.31,.27,.04,.64,.21,1.12,.5,.62,.38,.98,.64,1.06,.78,.09,.14,.06,.34-.1,.59l-3.54,5.86c-.2,.33-.64,.28-1.34-.14-.83-.5-1.35-1.17-1.55-2-.17-.77-.5-1.36-.99-1.75l-24.23-20.3c-.36-.32-.7-.57-1-.76-.47-.28-1.08-.22-1.83,.2-.36,.19-.85,.09-1.47-.28-.83-.5-1.32-.86-1.46-1.07s-.1-.51,.14-.89l5.14-8.5c.31-.52,.78-.73,1.41-.64s1.84,.55,3.65,1.36c.71,.3,1.4,.6,2.09,.9l27.17,11.45c1.32,.56,2.51,.68,3.57,.36,.28-.09,.49-.14,.63-.14,.13,0,.45,.15,.95,.45,.77,.47,1.21,.81,1.33,1.01,.11,.21,.06,.48-.14,.82l-5.98,9.89c-.18,.3-.56,.27-1.13-.08-.73-.44-1.16-.75-1.3-.94-.14-.18-.22-.53-.25-1.03-.02-.72-.29-1.23-.81-1.55-.53-.32-1.86-.9-3.99-1.75Zm-21.97-9.66l16.23,13.26,3-4.95-19.22-8.31Z"/>
      <path class="cls-1" d="M71.34,96.86l13.47,13.03c.56,.54,1.28,.64,2.16,.28,.75-.29,1.34-.22,1.79,.21,.93,.9,1.42,1.42,1.48,1.56,.06,.14-.07,.37-.38,.7l-4.8,4.96c-.24,.25-.49,.31-.75,.18-.26-.13-.77-.57-1.55-1.32-.36-.34-.44-.75-.26-1.22,.33-.92,.31-1.56-.06-1.92l-22.56-21.81c-.55-.53-1-.88-1.37-1.04-.37-.17-.81-.16-1.32,.01-.45,.16-.82,.21-1.1,.14-.28-.07-.67-.34-1.16-.82-.89-.86-1.11-1.52-.67-1.98l5-5.17,20.98,8.11-10.98-10.62c-.61-.59-1.34-.71-2.19-.34-.51,.2-.93,.25-1.24,.16s-.77-.44-1.38-1.03c-.38-.37-.58-.63-.59-.79s.09-.34,.29-.55l4.99-5.16c.32-.25,.87,.01,1.68,.79,.47,.46,.74,.77,.82,.95,.07,.18,.06,.41-.05,.7-.24,.61-.34,1.05-.28,1.32s.23,.55,.52,.83l27.12,26.22-3.07,3.18-24.55-9.55Z"/>
      <path class="cls-1" d="M85.36,63.79l-.99,.65c-.32,.21-.44,.6-.36,1.17s.64,1.89,1.67,3.96c.45,.91,.63,1.55,.55,1.9-.08,.36-.44,.75-1.1,1.17-.62,.41-1.08,.59-1.36,.55-.28-.04-.57-.29-.87-.75-.17-.27-.34-.54-.5-.82l-3.11-5.36c-.37-.63-.53-1.09-.47-1.39,.05-.3,.43-.68,1.13-1.13l16-10.42c.47-.3,.79-.43,.97-.38,.18,.05,.54,.43,1.08,1.13l3.35,4.34c.26,.34,.51,.69,.75,1.06,.29,.44,.46,.82,.5,1.13,.05,.31-.22,.65-.8,1.03-.74,.48-1.27,.72-1.57,.71-.31-.01-.78-.37-1.42-1.07-1.07-1.14-2.02-2.03-2.83-2.67-.81-.64-1.42-.83-1.83-.57l-.65,.43,18.6,28.56c.53,.82,1.25,1.15,2.15,1.01,.38-.06,.67-.02,.89,.1,.21,.12,.52,.48,.9,1.08,.49,.76,.71,1.24,.67,1.45-.05,.21-.31,.47-.77,.77l-9.61,6.26c-.38,.25-.67,.33-.88,.25-.21-.08-.54-.46-.99-1.16-.54-.83-.64-1.48-.3-1.96,.33-.47,.49-.82,.5-1.07,0-.25-.12-.58-.4-.99l-18.89-29.01Z"/>
    </g>
    <g>
      <path class="cls-1" d="M164.07,64.23h11.83v8.37h13.27v-27.52c0-2.64-.51-5.16-1.51-7.48-.99-2.31-2.37-4.35-4.1-6.08-1.73-1.73-3.78-3.11-6.08-4.1-2.33-1-4.85-1.51-7.49-1.51s-5.16,.51-7.48,1.51c-2.31,1-4.35,2.38-6.07,4.11-1.72,1.73-3.09,3.77-4.08,6.08-1,2.33-1.51,4.85-1.51,7.48v27.52h13.24v-8.37Zm11.83-19.16v5.92h-11.83v-5.92c0-.82,.15-1.57,.46-2.29,.32-.74,.73-1.36,1.27-1.9s1.16-.96,1.9-1.27c1.44-.62,3.13-.62,4.57,0,.74,.32,1.36,.73,1.9,1.27,.54,.54,.96,1.16,1.27,1.9,.31,.72,.46,1.47,.46,2.28Z"/>
      <path class="cls-1" d="M177.25,150.69c-.32,.11-.65,.21-.98,.3-.79,.2-1.61,.3-2.46,.3-1.5,0-2.86-.28-4.17-.85-1.32-.57-2.48-1.36-3.46-2.34-.98-.98-1.77-2.15-2.34-3.47-.57-1.31-.85-2.69-.85-4.21s.28-2.88,.84-4.17c.57-1.31,1.36-2.47,2.34-3.44,.98-.98,2.15-1.76,3.47-2.34,1.3-.57,2.67-.84,4.17-.84s2.88,.29,4.23,.88c1.36,.6,2.58,1.44,3.62,2.5l2.22,2.25,7.07-11.78-1.58-1.35c-2.15-1.83-4.59-3.25-7.24-4.24-2.65-.98-5.45-1.48-8.31-1.48-2.19,0-4.34,.29-6.39,.86-2.03,.57-3.96,1.38-5.72,2.42-1.76,1.03-3.4,2.29-4.86,3.74-1.47,1.46-2.74,3.1-3.77,4.88-1.03,1.77-1.84,3.7-2.41,5.71-.57,2.03-.86,4.18-.86,6.38s.29,4.35,.86,6.4c.57,2.04,1.38,3.97,2.41,5.75,1.04,1.78,2.31,3.42,3.77,4.88,1.46,1.45,3.09,2.71,4.85,3.75,1.77,1.05,3.7,1.87,5.73,2.44,2.04,.57,4.19,.86,6.39,.86,2.86,0,5.66-.5,8.31-1.48,2.65-.98,5.08-2.41,7.24-4.24l.86-.73v-20.08h-12.98v12.73Z"/>
      <path class="cls-1" d="M175.91,237.08c0,.82-.15,1.56-.46,2.26-.32,.73-.73,1.35-1.28,1.89s-1.16,.96-1.9,1.27c-1.44,.62-3.13,.62-4.57,0-.74-.32-1.36-.73-1.9-1.27-.54-.54-.96-1.16-1.28-1.89-.31-.71-.45-1.45-.45-2.26v-27.55h-13.24v27.55c0,2.64,.51,5.16,1.51,7.48,1,2.31,2.37,4.35,4.09,6.07,1.72,1.72,3.76,3.1,6.07,4.09,2.33,1,4.85,1.51,7.49,1.51s5.16-.51,7.48-1.51c2.31-.99,4.35-2.37,6.08-4.08,1.73-1.72,3.12-3.76,4.11-6.07,1-2.33,1.51-4.85,1.51-7.49v-27.55h-13.27v27.55Z"/>
      <polygon class="cls-1" points="150.83 310.85 163.4 310.85 163.4 344.29 176.64 344.29 176.64 310.85 189.17 310.85 189.17 297.58 150.83 297.58 150.83 310.85"/>
    </g>
    <path class="cls-1" d="M208.69,375.04c-24.92,0-48.7,.09-72.47-.21-1.56-.02-4.24-2.98-4.43-4.79-1.56-14.89-1.58-14.45-16.38-19.48-23.65-8.04-45.01-20.54-62.68-38.14-19.18-19.09-33.76-41.37-42.92-67.27-12.49-35.32-12.75-70.91-2.51-106.28,7.72-26.67,21.39-50.8,41.03-70.79,9.68-9.84,19.97-19.63,31.6-26.86,12.77-7.94,27.13-13.59,41.28-18.97,11.35-4.31,11.88-3.47,11.96-15.48,.03-4.96,1.64-6.61,6.64-6.57,20.65,.16,41.31,.09,61.96-.21,5.09-.07,7.25,1.17,7.12,6.68-.32,12.84-.84,10.82,10.41,14.13,26.36,7.74,49.58,20.97,69.16,39.99,15.64,15.19,28.67,32.62,36.73,53.18,4.78,12.19,10.7,24.33,12.88,37.05,3.35,19.6,4.46,39.6,1.13,59.61-5.8,34.86-20.01,65.34-43.76,91.75-22.28,24.78-49.71,40.55-81.13,50.13-4.08,1.24-6.02,3.16-5.71,7.59,.32,4.65,.07,9.34,.07,14.93Zm.1-62.54c-.11,0-.22,0-.33,0,0,4.27,0,8.53,0,12.8-.01,4.49,.05,8.99-.1,13.47-.14,4.31,1.8,5.82,5.83,4.56,3.63-1.13,7.25-2.35,10.8-3.72,53.21-20.46,86.91-58.8,101.96-113.32,7.96-28.85,7.32-57.81-1.76-86.83-17.31-55.31-53.14-91.76-107.95-109.91-5.13-1.7-7.42-.68-7.36,5.26,.16,16.61,.11,33.24-.3,49.84-.13,5.33,2.08,8.07,6.5,10.4,28.11,14.78,46.54,37.09,53.65,68.52,4.67,20.63,2.82,40.93-4.45,60.18-9.37,24.84-27.19,42.95-50.97,54.91-3.89,1.96-5.71,4.49-5.59,8.92,.22,8.3,.06,16.61,.06,24.91ZM132.05,60.29c.14,0,.27,0,.41,0,0-8.54-.04-17.08,.02-25.61,.03-4.34-1.36-6.21-6.13-4.91-17.53,4.78-33.69,12.71-48.14,23.39-29.9,22.1-50.7,50.91-61.5,86.84-14.21,47.24-8.56,91.93,16.69,134.06,20.76,34.63,51.31,56.98,89.5,69.21,6.98,2.24,7.93,1.52,7.99-5.72,.15-16.18,.14-32.36,.28-48.53,.04-4.39-1.33-7.22-5.6-9.55-27.92-15.2-47.24-37.07-54.17-69.1-5.48-25.3-2.25-49.11,9.74-71.72,10.16-19.16,24.99-33.89,44.62-43.4,4.48-2.17,6.32-5.32,6.3-10.02-.03-8.31,0-16.63,0-24.94Zm77.54,208.24c23.1-5.97,54.45-43.95,53.63-84.9-.75-37.3-31.56-74.78-53.63-79.01v163.91Zm-78.54,.79V104.52c-26.94,9.08-56.94,48.7-53.02,91.03,3.22,34.77,28.36,67.08,53.02,73.78Zm8.88-37.4s.07,0,.11,0c0,11.9,.12,23.8-.06,35.7-.07,4.48,1.32,6.52,6.13,6.43,15.26-.27,30.53-.32,45.79-.26,5.91,.03,8.35-2.35,8.34-8.42-.01-22.9,.13-45.8,.63-68.69,.13-6.14-2.25-7.75-7.85-7.63-15.26,.33-30.53,.52-45.78,.31-5.72-.08-7.46,2.21-7.37,7.52,.19,11.67,.06,23.35,.06,35.02Zm59.87,129.64c0-6.4,0-11.97,0-17.53,.03-17.97-.07-35.94,.16-53.91,.07-5.25-1.75-7.13-7.08-7-15.04,.37-30.1,.47-45.14,.29-5.63-.06-7.94,1.47-7.86,7.61,.28,21.34-.01,42.69-.05,64.03,0,2.15,.3,4.29,.47,6.5h59.49Zm.92-221.77c0-11.66-.09-23.33,.05-34.99,.05-4.04-1.53-5.57-5.57-5.51-16.15,.24-32.3,.37-48.45,.35-4.92,0-6.62,1.97-6.59,6.88,.12,22.44,.05,44.88-.21,67.32-.06,4.87,1.39,6.94,6.47,6.83,16.14-.34,32.29-.44,48.44-.51,4.22-.02,6.02-1.63,5.95-6.03-.2-11.44-.07-22.89-.07-34.33Zm.09-90.84s.06,0,.09,0c0-11.44-.16-22.88,.07-34.31,.1-4.9-1.66-6.88-6.61-6.82-15.46,.17-30.93,.17-46.4,.02-4.88-.05-6.81,1.87-6.84,6.76-.14,22.65-.35,45.3-.82,67.94-.11,5.24,1.67,7.2,6.9,7.17,15.69-.08,31.39,.07,47.08,.32,4.9,.08,6.71-1.89,6.61-6.78-.23-11.43-.07-22.87-.07-34.3Z"/>
  </g>
</svg>